<svg xmlns="http://www.w3.org/2000/svg" viewBox="0 0 24 24" fill="currentColor">
  <path d="M12.232 4.232a2.5 2.5 0 013.536 0l3.536 3.536a2.5 2.5 0 010 3.536L17.23 13.38a.75.75 0 01-1.06-1.06l2.072-2.072a1 1 0 000-1.414l-3.536-3.536a1 1 0 00-1.414 0L11.22 7.37a.75.75 0 11-1.06-1.06l2.072-2.078zM12.78 16.63a.75.75 0 11-1.06 1.06l-2.072 2.072a2.5 2.5 0 01-3.536 0L2.575 16.23a2.5 2.5 0 010-3.536l2.072-2.072a.75.75 0 011.06 1.06L3.636 13.75a1 1 0 000 1.414l3.536 3.536a1 1 0 001.414 0l2.072-2.072a.75.75 0 011.06 0z" />
  <path d="M9.06 14.94a.75.75 0 010-1.06l5.88-5.88a.75.75 0 011.06 1.06l-5.88 5.88a.75.75 0 01-1.06 0z" />
</svg>